<?xml version="1.0" encoding="utf-8"?>
<!-- Generator: Adobe Illustrator 22.1.0, SVG Export Plug-In . SVG Version: 6.00 Build 0)  -->
<svg version="1.1" id="图层_1" xmlns="http://www.w3.org/2000/svg" xmlns:xlink="http://www.w3.org/1999/xlink" x="0px" y="0px"
	 viewBox="0 0 135.1 39.1" style="enable-background:new 0 0 135.1 39.1;" xml:space="preserve">
<style type="text/css">
	.st0{opacity:0.35;}
	.st1{fill:#FFFFFF;}
</style>
<g id="XMLID_167_" class="st0">
</g>
<g id="XMLID_168_" class="st0">
</g>
<g id="XMLID_169_" class="st0">
</g>
<g id="XMLID_170_" class="st0">
</g>
<g id="XMLID_171_" class="st0">
</g>
<g id="XMLID_172_" class="st0">
</g>
<g>
	<g class="st0">
		<path class="st1" d="M29.8,34c-7.9,0-14.4-6.5-14.4-14.4c0-7.9,6.5-14.4,14.4-14.4c7.9,0,14.4,6.5,14.4,14.4
			C44.2,27.5,37.7,34,29.8,34z M35.1,27.1l2.6-1.8c0.4-0.3,0.6-0.7,0.6-1.2V11.9H35l-4,6.9c-0.2,0.3-0.5,0.5-1,0.5
			c-0.4,0-0.8-0.2-1-0.6l-3.9-6.8h-3.3v12.3c0,0.4,0.2,0.8,0.6,1.1l2.4,1.8V16.6l5,8.7c0,0,0.1,0,0.1,0c0.1,0,0.1,0,0.1,0l5-8.7
			V27.1z M59.4,32.3V12.4h3.9V13c1.1-0.6,2.4-1,3.7-1c4,0,7.3,3.2,7.6,7.1c0.2-4,3.5-7.2,7.6-7.2c1.3,0,2.6,0.3,3.7,1v-0.6h3.9V7
			h3.9v6c1.1-0.6,2.4-1,3.7-1c4.1,0,7.6,3.5,7.6,7.6c0,4.2-3.4,7.6-7.6,7.6c-1.3,0-2.6-0.3-3.7-1V27L93.2,27h-3.4v-0.3h-3.9v-0.6
			c-1.1,0.6-2.4,1-3.7,1c-4,0-7.3-3.2-7.6-7.1c-0.2,4-3.5,7.2-7.6,7.2c-1.3,0-2.6-0.3-3.7-1v6H59.4z M97.5,16c-1.1,0-2,0.4-2.7,1.1
			c-0.7,0.7-1,1.6-1,2.5c0,2.1,1.7,3.7,3.7,3.7s3.7-1.7,3.7-3.7C101.2,17.6,99.6,16,97.5,16z M82.2,16c-2,0-3.7,1.7-3.7,3.7
			c0,2,1.7,3.7,3.7,3.7c2.1,0,3.7-1.6,3.7-3.7C85.9,17.6,84.3,16,82.2,16z M67,16c-2,0-3.7,1.7-3.7,3.7c0,2.1,1.6,3.7,3.7,3.7
			c2,0,3.7-1.7,3.7-3.7C70.7,17.6,69.1,16,67,16z M112.6,27.2c-4.2,0-7.6-3.4-7.6-7.6c0-4.2,3.4-7.6,7.6-7.6c3.1,0,6,1.9,7.1,4.8
			l0.3,0.7h-4.3l-0.1-0.2c-0.6-0.9-1.7-1.4-2.9-1.4c-2,0-3.7,1.7-3.7,3.7s1.7,3.7,3.7,3.7c1.1,0,2.2-0.5,2.9-1.4l0.2-0.2h4.3
			l-0.3,0.7C118.6,25.2,115.8,27.2,112.6,27.2z M51.8,27.2c-4.2,0-7.6-3.4-7.6-7.6c0-4.2,3.4-7.6,7.6-7.6c1.3,0,2.6,0.3,3.7,1v-0.6
			h3.9v14.4h-3.9v-0.6C54.3,26.8,53.1,27.2,51.8,27.2z M51.7,16c-2,0-3.7,1.7-3.7,3.7c0,2,1.7,3.7,3.7,3.7c1.1,0,2.1-0.4,2.8-1.1
			c0.6-0.7,1-1.6,0.9-2.6C55.4,17.6,53.7,16,51.7,16z"/>
		<path d="M29.8,5.6c7.7,0,13.9,6.2,13.9,13.9s-6.2,13.9-13.9,13.9s-13.9-6.2-13.9-13.9S22.1,5.6,29.8,5.6 M30,18.8
			c-0.2,0-0.4-0.1-0.5-0.3l-4.1-7.1h-4.1v12.8c0,0.6,0.3,1.1,0.8,1.5l3.2,2.4v-9.6l4.1,7.1c0.1,0.2,0.3,0.3,0.5,0.3
			c0.2,0,0.5-0.1,0.6-0.3l4.1-7.1V28l3.4-2.4c0.5-0.4,0.8-1,0.8-1.6V11.3h-4.1l-4.1,7.1C30.5,18.6,30.2,18.8,30,18.8 M93.2,7.5v6.4
			c1.2-0.9,2.6-1.4,4.2-1.4c3.9,0,7.1,3.3,7.1,7.1c0,3.9-3.2,7.1-7.1,7.1c-1.6,0-3-0.5-4.2-1.4v1.1v0.1h-2.9v-19H93.2 M97.5,23.8
			c2.3,0,4.2-1.9,4.2-4.2s-1.9-4.2-4.2-4.2c-2.4,0-4.3,1.9-4.2,4.2C93.3,21.9,95.2,23.8,97.5,23.8 M112.6,12.4c3,0,5.6,1.9,6.6,4.5
			h-3.3c-0.7-1-1.9-1.6-3.3-1.6c-2.3,0-4.2,1.9-4.2,4.2s1.9,4.2,4.2,4.2c1.4,0,2.6-0.7,3.3-1.6h3.3c-1,2.6-3.6,4.5-6.6,4.5
			c-3.9,0-7.1-3.2-7.1-7.1S108.7,12.4,112.6,12.4 M82.2,12.4c1.6,0,3,0.5,4.2,1.4v-1h2.9v13.4h-2.9v-1c-1.2,0.9-2.6,1.4-4.2,1.4
			c-3.9,0-7.1-3.2-7.1-7.1S78.3,12.4,82.2,12.4 M82.2,23.8c2.3,0,4.2-1.8,4.2-4.2c0-2.3-1.9-4.2-4.2-4.2c-2.3,0-4.2,1.9-4.2,4.2
			S79.9,23.8,82.2,23.8 M51.8,12.4c1.6,0,3,0.5,4.2,1.4v-1h2.9v13.4H56v-1c-1.2,0.9-2.6,1.4-4.2,1.4c-3.9,0-7.1-3.2-7.1-7.1
			S47.9,12.4,51.8,12.4 M51.7,23.8c2.4,0,4.3-1.8,4.2-4.2c0-2.3-1.9-4.2-4.2-4.2s-4.2,1.9-4.2,4.2S49.4,23.8,51.7,23.8 M67,12.5
			c3.9,0,7.1,3.3,7.1,7.1c0,3.9-3.2,7.1-7.1,7.1c-1.6,0-3-0.5-4.2-1.4v6.4h-2.9V12.8h2.9v1.1C64,13,65.4,12.5,67,12.5 M67,23.8
			c2.3,0,4.2-1.9,4.2-4.2s-1.9-4.2-4.2-4.2c-2.3,0-4.2,1.9-4.2,4.2C62.8,22,64.7,23.8,67,23.8 M29.8,4.6c-8.2,0-14.9,6.7-14.9,14.9
			s6.7,14.9,14.9,14.9c7.1,0,13.1-5,14.6-11.7c1.2,2.9,4.1,4.9,7.4,4.9c1.1,0,2.2-0.2,3.2-0.7v0.3h1h2.9h0.1v4.5v1h1h2.9h1v-1v-4.7
			c1,0.4,2.1,0.7,3.2,0.7c3.5,0,6.5-2.2,7.6-5.3c1.2,3,4.1,5.2,7.6,5.2c1.1,0,2.2-0.2,3.2-0.7v0.3h1h2.9h0v0.3h1h2.9h1v-0.5
			c1,0.4,2.1,0.7,3.2,0.7c3.5,0,6.5-2.2,7.6-5.4c1.2,3.1,4.1,5.3,7.6,5.3c3.3,0,6.4-2.1,7.5-5.1l0.5-1.4h-1.5h-3.3h-0.5l-0.3,0.4
			c-0.5,0.6-1.4,1.2-2.5,1.2c-1.7,0-3.2-1.5-3.2-3.2s1.5-3.2,3.2-3.2c1.1,0,2,0.4,2.5,1.2l0.3,0.4h0.5h3.3h1.5l-0.5-1.4
			c-1.2-3.1-4.2-5.1-7.5-5.1c-3.5,0-6.5,2.3-7.6,5.4c-1.2-3.1-4.2-5.3-7.6-5.3c-1.1,0-2.2,0.2-3.2,0.7V7.5v-1h-1h-2.9h-1v1v4.3h0
			h-2.9h-1v0.3c-1-0.4-2.1-0.7-3.2-0.7c-3.5,0-6.5,2.2-7.6,5.3c-1.2-3-4.2-5.2-7.6-5.2c-1.1,0-2.2,0.2-3.2,0.7v-0.4h-1h-2.9h-1h-0.1
			H56h-1v0.3c-1-0.4-2.1-0.7-3.2-0.7c-3.3,0-6.2,2-7.4,4.9C42.9,9.7,36.9,4.6,29.8,4.6L29.8,4.6z M35.2,12.3h2.5V24
			c0,0.3-0.2,0.6-0.4,0.8l-1.8,1.3v-7.7v-3.7l-1.9,3.2l-3.8,6.6l-3.8-6.6l-1.9-3.2v3.7V26l-1.6-1.2c-0.4-0.3-0.4-0.5-0.4-0.7V12.3
			h2.5l3.8,6.6c0.3,0.5,0.8,0.8,1.4,0.8s1.2-0.3,1.4-0.8L35.2,12.3L35.2,12.3z M97.5,22.8c-1.7,0-3.2-1.5-3.2-3.2
			c0-0.8,0.3-1.6,0.8-2.2c0.6-0.6,1.5-1,2.4-1c1.7,0,3.2,1.5,3.2,3.2S99.3,22.8,97.5,22.8L97.5,22.8z M82.2,22.8
			c-1.7,0-3.2-1.5-3.2-3.2s1.5-3.2,3.2-3.2c1.7,0,3.2,1.5,3.2,3.2C85.4,21.4,84,22.8,82.2,22.8L82.2,22.8z M67,22.8
			c-1.8,0-3.2-1.4-3.2-3.2c0-1.7,1.5-3.2,3.2-3.2c1.7,0,3.2,1.5,3.2,3.2S68.8,22.8,67,22.8L67,22.8z M51.7,22.8
			c-1.7,0-3.2-1.5-3.2-3.2s1.5-3.2,3.2-3.2s3.2,1.5,3.2,3.2c0,0.9-0.3,1.6-0.8,2.2C53.5,22.5,52.6,22.8,51.7,22.8L51.7,22.8z"/>
	</g>
</g>
</svg>
