<svg  version="1.0"
     xmlns="http://www.w3.org/2000/svg"
     xmlns:xlink="http://www.w3.org/1999/xlink" width="100%" height="100%" viewBox="0 0 340.000000 250.000000" >
    <g  fill="#004f9d" transform="translate(69.68702697753906,92.4072904586792)">
        <g >
            <g transform="translate(0, 1.9459580665281955)">
                <g>
                    <g >
                        <g>
                            <rect fill="#004f9d" fill-opacity="0" stroke-width="2" x="0" y="0" width="75.6586977469818" height="59.351327110186865" ></rect>
                            <svg x="0" y="0" width="75.6586977469818" height="59.351327110186865" class="image-svg-svg primary" style="overflow: visible;">
                                <svg
                                        xmlns="http://www.w3.org/2000/svg" viewBox="0 0 1531.699951171875 1201.56005859375">
                                    <g>
                                        <g style="isolation:isolate">
                                            <path fill="#024c6d" d="M1531.7 989.5l-22.79-12.4-340.75-591.15 22.8 12.4L1531.7 989.5z"></path>
                                            <path fill="#007580" d="M778.14 1095.4l-22.8-12.39 188.14-376.84 22.79 12.4-188.13 376.83z"></path>
                                            <path fill="#024c6d" d="M1190.96 398.35l-22.8-12.4-56.56-98.14 22.79 12.39 56.57 98.15z"></path>
                                            <path fill="#0f3445" d="M1190.96 398.35l-22.8-12.4-34.73-60.26 22.79 12.4 34.74 60.26z"></path>
                                            <path fill="#007580" d="M966.27 718.57l-22.79-12.4 189.95-380.48 22.79 12.4-189.95 380.48z"></path>
                                            <path fill="#113b4e" d="M966.27 718.57l-22.79-12.4 168.12-418.36 22.79 12.39-168.12 418.37z"></path>
                                            <path fill="#00afbf" d="M1156.22 338.09l34.74 60.26L1531.7 989.5l-753.56 105.9 188.13-376.83 189.95-380.48z"></path>
                                            <path fill="#1a5b78" d="M1134.39 300.2l56.57 98.15-34.74-60.26-189.95 380.48 168.12-418.37z"></path>
                                            <path fill="#024c6d" d="M966.28 718.56l-22.8-12.4-187.72-325.68 22.79 12.4 187.73 325.68z"></path>
                                            <path fill="#00356a" d="M756.66 436.74l-22.8-12.4 21.9-43.86 22.79 12.4-21.89 43.86z"></path>
                                            <path fill="#024c6d" d="M778.55 392.88l-22.79-12.4L567.12 53.21l22.79 12.4 188.64 327.27z"></path>
                                            <path fill="#0385bd" d="M968.5 12.4l563.2 977.1-340.74-591.15-56.57-98.15-168.11 418.36-187.73-325.68L589.91 65.61 968.5 12.4z"></path>
                                            <path fill="#0e243b" d="M756.66 436.74l-22.8-12.4L567.12 53.21l22.79 12.4 166.75 371.13z"></path>
                                            <path fill="#183f66" d="M589.91 65.61l188.64 327.27-21.89 43.86L589.91 65.61z"></path>
                                            <path fill="#00356a" d="M22.79 1201.56L0 1189.16 567.12 53.21l22.79 12.4L22.79 1201.56z"></path>
                                            <path fill="#004f9d" d="M589.91 65.61l166.75 371.13 21.89-43.86-377.16 755.47-378.6 53.21L589.91 65.61z"></path>
                                            <path fill="#036b99" d="M589.91 65.61l-22.79-12.4L945.71 0l22.79 12.4-378.59 53.21z"></path>
                                        </g>
                                    </g>
                                </svg>
                            </svg>
                            <!---->
                        </g>
                    </g>
                </g>
            </g>
            <g transform="translate(79, 0)">
                <g  fill="#004f9d" transform="scale(1)">
                    <path d="M10.54 0L4.32 0L4.32-36.22L10.27-36.22L10.27-31.08Q14.32-37.30 21.35-37.30L21.35-37.30Q27.57-37.30 30.54-31.62L30.54-31.62Q30.81-31.35 30.81-31.35L30.81-31.35Q35.68-37.57 41.89-37.30L41.89-37.30Q52.97-36.49 53.24-24.86L53.24-24.86L53.24 0L47.03 0L47.03-23.24Q47.30-31.89 40.27-31.62L40.27-31.62Q32.70-30.81 31.89-21.89L31.89-21.89L31.89 0L25.68 0L25.68-24.86Q25.68-31.62 20-31.62L20-31.62Q10.81-31.08 10.54-19.73L10.54-19.73L10.54 0Z" transform="translate(-4.324324324324325, 49.459459459459474)"></path>
                </g>
            </g>
            <g transform="translate(131, 0)">
                <g  fill="#004f9d" transform="scale(1)">
                    <path d="M10-25.14L10-25.14L4.32-25.14Q4.59-37.30 19.19-37.30L19.19-37.30Q32.16-36.76 32.43-27.03L32.43-27.03L32.43-6.22Q32.43-4.05 34.59-4.05L34.59-4.05Q34.86-4.05 35.41-4.05L35.41-4.05Q36.22-4.32 36.76-4.32L36.76-4.32L36.76 0Q36.22 0 35.41 0L35.41 0Q34.05 0.27 33.24 0.27L33.24 0.27Q26.76 0.27 27.03-4.86L27.03-4.86Q21.62 0.54 13.78 0.54L13.78 0.54Q2.97 0 2.43-9.46L2.43-9.46Q2.70-19.19 13.51-20.81L13.51-20.81L23.51-21.89Q26.76-22.43 26.76-26.22L26.76-26.22Q26.76-32.16 18.11-32.16L18.11-32.16Q10.54-32.16 10-25.14ZM26.49-12.43L26.49-12.43L26.49-18.38Q24.32-17.03 16.49-15.95L16.49-15.95Q8.92-15.41 8.92-10.27L8.92-10.27Q8.92-4.05 15.14-4.05L15.14-4.05Q25.68-4.86 26.49-12.43Z" transform="translate(-2.4324324324324325, 49.459459459459474)"></path>
                </g>
            </g>
            <g transform="translate(169, 0)">
                <g  fill="#004f9d" transform="scale(1)">
                    <path d="M9.73-16.22L9.73-16.22Q10-4.86 19.73-4.05L19.73-4.05Q29.19-4.32 29.46-18.11L29.46-18.11Q29.73-31.62 19.46-31.62L19.46-31.62Q9.73-31.62 9.73-16.22ZM10 13.78L4.05 13.78L4.05-36.22L9.73-36.22L9.73-31.08L10-31.08Q10-31.08 10.27-31.35L10.27-31.35Q14.05-37.30 20.54-37.30L20.54-37.30Q34.86-36.49 35.68-19.19L35.68-19.19Q34.86 0 19.73 0.54L19.73 0.54Q13.51 0.54 10.27-3.78L10.27-3.78L10-3.78L10 13.78Z" transform="translate(-4.054054054054054, 49.459459459459474)"></path>
                </g>
            </g>
        </g>
    </g>
</svg>