<?xml version="1.0" encoding="utf-8"?>
<!-- Generator: Adobe Illustrator 22.1.0, SVG Export Plug-In . SVG Version: 6.00 Build 0)  -->
<svg version="1.0"
     xmlns="http://www.w3.org/2000/svg"
     width="100%" height="100%" viewBox="0 0 340.000000 250.000000"
     >
    <g fill="#913234"
       transform="translate(71.40499877929688,88.15874862670898)">
        <g transform="translate(0,5.96116828918457)">
            <g>
                <rect fill="#913234" fill-opacity="0" stroke-width="2" x="0" y="0" width="60"
                      height="61.760164693772516" ></rect>
                <svg x="0" y="0" width="60" height="61.760164693772516"
                     >
                    <svg
                            xmlns="http://www.w3.org/2000/svg" viewBox="0 0 151.6999969482422 156.14999389648438">
                        <g>
                            <g>
                                <path fill="#913234"
                                      d="M123.1 147.9V81.83l28.6-16.51V48.8L80.19 90.09v16.52l28.61-16.52v66.06l14.3-8.25z"></path>
                                <path fill="#e08497"
                                      d="M118.76 57.8L61.55 24.77l28.6-16.51L75.85 0 4.33 41.29l14.31 8.26 28.6-16.52 57.21 33.03 14.31-8.26z"></path>
                                <path fill="#323d39"
                                      d="M42.91 156.15V90.09l28.6 16.52V90.09L0 48.8v16.52l28.61 16.51v66.07l14.3 8.25z"></path>
                            </g>
                        </g>
                    </svg>
                </svg>
                <!---->
            </g>
        </g>
        <g transform="translate(67,0)">
            <g transform="translate(0,0)"
               fill="url(#fc97bc9f-68b7-424f-b18a-c011f94c4248)">
                <g transform="scale(1)">
                    <g>
                        <path d="M3.81-34.91L3.81-29.71 9.01-29.71 9.01-11.62Q9.01-7.87 11.68-5.21L11.68-5.21Q14.28-2.6 18.03-2.6L18.03-2.6 25.83-2.6 25.83-7.74 20.63-7.74Q19.04-7.74 17.9-8.89L17.9-8.89Q16.76-10.03 16.76-11.62L16.76-11.62 16.76-29.71 25.83-29.71 25.83-34.91 16.76-34.91 16.76-49.13 9.01-49.13 9.01-34.91 3.81-34.91ZM42.53-34.91L52.88-34.91Q56.62-34.91 59.22-32.25L59.22-32.25Q61.89-29.58 61.89-25.83L61.89-25.83 61.89-11.62Q61.89-7.87 59.22-5.21L59.22-5.21Q56.62-2.6 52.88-2.6L52.88-2.6 42.53-2.6Q38.78-2.6 36.12-5.21L36.12-5.21Q33.45-7.87 33.45-11.62L33.45-11.62 33.45-25.83Q33.45-29.58 36.12-32.25L36.12-32.25Q38.78-34.91 42.53-34.91L42.53-34.91ZM50.27-29.71L45.13-29.71Q43.48-29.71 42.34-28.56L42.34-28.56Q41.2-27.42 41.2-25.83L41.2-25.83 41.2-11.62Q41.2-10.03 42.34-8.89L42.34-8.89Q43.48-7.74 45.13-7.74L45.13-7.74 50.27-7.74Q51.86-7.74 53-8.89L53-8.89Q54.15-10.03 54.15-11.62L54.15-11.62 54.15-25.83Q54.15-27.42 53-28.56L53-28.56Q51.86-29.71 50.27-29.71L50.27-29.71ZM77.25 11.62L69.51 11.62 69.51-31.74Q69.51-33.07 70.46-34.02L70.46-34.02Q71.41-34.91 72.74-34.91L72.74-34.91 88.87-34.91Q92.61-34.91 95.28-32.31L95.28-32.31Q97.94-29.64 97.94-25.9L97.94-25.9 97.94-11.68Q97.94-7.93 95.28-5.27L95.28-5.27Q92.61-2.6 88.87-2.6L88.87-2.6 77.25-2.6 77.25 11.62ZM86.33-29.77L78.58-29.77Q77.25-29.77 77.25-28.5L77.25-28.5 77.25-7.81 86.33-7.81Q87.92-7.81 89.06-8.95L89.06-8.95Q90.2-10.09 90.2-11.68L90.2-11.68 90.2-25.9Q90.2-27.49 89.06-28.63L89.06-28.63Q87.92-29.77 86.33-29.77L86.33-29.77ZM134-29.71L134-34.91 108.8-34.91Q107.47-34.91 106.51-33.96L106.51-33.96Q105.56-33.01 105.56-31.67L105.56-31.67 105.56-24.18Q105.56-21.26 108.23-20.06L108.23-20.06 125.11-12.38Q126.25-11.87 126.25-10.6L126.25-10.6 126.25-9.01Q126.25-7.74 124.99-7.74L124.99-7.74 105.56-7.74 105.56-2.6 130.76-2.6Q132.09-2.6 133.05-3.55L133.05-3.55Q134-4.44 134-5.84L134-5.84 134-13.27Q134-16.19 131.4-17.39L131.4-17.39 114.45-25.14Q113.31-25.64 113.31-26.85L113.31-26.85 113.31-28.44Q113.31-29.71 114.64-29.71L114.64-29.71 134-29.71Z"
                              transform="translate(-3.809999942779541, 49.130001068115234)"></path>
                    </g>
                </g>
            </g>
            <g fill="#45818E"
               transform="translate(5,66.75)">
                <rect x="0" height="1" y="2.9649999141693115" width="47.39000129699707"></rect>
                <rect height="1" y="2.9649999141693115" width="47.39000129699707" x="72.80000114440918"></rect>
                <g transform="translate(50.39000129699707,0)">
                    <g transform="scale(1)">
                        <path d="M1.27-7.27L1.27-7.27L2.67-7.27Q3.70-2.39 3.75-2.16L3.75-2.16L3.75-2.16Q4.83-7.03 4.92-7.27L4.92-7.27L6.28-7.27Q6.47-6 7.27-0.38L7.27-0.38L6.19-0.38L5.53-5.25L5.48-5.25L4.45-0.38L3.09-0.38Q3.05-0.38 3-0.80L3-0.80Q2.95-0.98 2.25-4.27L2.25-4.27Q2.06-5.34 2.02-5.44L2.02-5.44L2.02-5.44L1.36-0.38L0.23-0.38Q0.98-5.39 1.17-6.61L1.17-6.61Q1.17-6.61 1.27-7.27ZM10.22-7.31L10.22-7.31L11.11-7.31Q11.16-7.31 11.30-7.27L11.30-7.27L13.36-1.59L13.83-0.38L12.66-0.38L11.95-2.25L9.42-2.25Q9.42-2.16 8.77-0.38L8.77-0.38L7.59-0.38Q7.64-0.47 9.66-6.19L9.66-6.19Q10.03-7.22 10.03-7.27L10.03-7.27Q10.17-7.31 10.22-7.31ZM10.69-5.72L10.69-5.72L9.80-3.23L11.58-3.23Q11.58-3.23 10.69-5.72L10.69-5.72ZM14.95-7.27L17.58-7.27Q18.42-7.27 19.08-6.56L19.08-6.56Q19.36-6.19 19.41-6L19.41-6Q19.64-5.48 19.64-5.02L19.64-5.02L19.64-4.88Q19.64-4.17 19.22-3.52L19.22-3.52Q18.56-2.72 17.63-2.72L17.63-2.72L15.75-2.72Q15.75-2.72 15.70-3L15.70-3Q15.66-3.09 15.42-4.13L15.42-4.13Q15.70-3.98 16.17-3.84L16.17-3.84Q16.69-3.70 17.02-3.70L17.02-3.70L17.63-3.70Q18.23-3.70 18.52-4.50L18.52-4.50Q18.56-4.73 18.56-4.88L18.56-4.88L18.56-4.92Q18.56-5.48 18.14-5.91L18.14-5.91Q18.14-5.91 18-6L18-6Q17.77-6.14 17.58-6.14L17.58-6.14L15.42-6.14L15.42-0.38L14.20-0.38L14.20-6.61Q14.20-6.66 14.63-6.98L14.63-6.98Q14.95-7.27 14.95-7.27L14.95-7.27Z"
                              transform="translate(-0.234375, 7.3125)"></path>
                    </g>
                </g>
            </g>
        </g>
    </g>
    <defs >
        <linearGradient x1="0" y1="1" x2="0" y2="0" id="fc97bc9f-68b7-424f-b18a-c011f94c4248">
            <stop offset="0%" stop-color="#091f3f"></stop>
            <stop offset="100%" stop-color="#527895"></stop>
        </linearGradient>
        <filter>
            <feColorMatrix type="matrix"
                           values="0 0 0 0 0.99609375  0 0 0 0 0.99609375  0 0 0 0 0.99609375  0 0 0 1 0"></feColorMatrix>
        </filter>
    </defs>
</svg>